<svg width="48" height="44" viewBox="0 0 48 44" fill="none" xmlns="http://www.w3.org/2000/svg">
<circle cx="22" cy="22" r="22" fill="#F7F6F6"/>
<path d="M22 8V11.2727M13.2727 23.2727C13.2727 17.8182 14.3636 11.2727 22 11.2727C29.6364 11.2727 30.7273 17.8182 30.7273 23.2727C30.7273 28.7273 34 32 34 32H10C10 32 13.2727 28.7273 13.2727 23.2727ZM26.3636 32C26.3636 32 26.3636 36.3636 22 36.3636C17.6364 36.3636 17.6364 32 17.6364 32H26.3636Z" stroke="#012E65" stroke-width="2" stroke-linecap="round" stroke-linejoin="round"/>
<g filter="url(#filter0_d_1129_6162)">
<ellipse cx="30" cy="14" rx="6" ry="6" fill="#E64622"/>
</g>
<path d="M28.2294 11V11.87H29.8094V18H30.7994V11H28.2294Z" fill="white"/>
<defs>
<filter id="filter0_d_1129_6162" x="12" y="0" width="36" height="36" filterUnits="userSpaceOnUse" color-interpolation-filters="sRGB">
<feFlood flood-opacity="0" result="BackgroundImageFix"/>
<feColorMatrix in="SourceAlpha" type="matrix" values="0 0 0 0 0 0 0 0 0 0 0 0 0 0 0 0 0 0 127 0" result="hardAlpha"/>
<feOffset dy="4"/>
<feGaussianBlur stdDeviation="6"/>
<feColorMatrix type="matrix" values="0 0 0 0 0.901961 0 0 0 0 0.27451 0 0 0 0 0.133333 0 0 0 0.1 0"/>
<feBlend mode="normal" in2="BackgroundImageFix" result="effect1_dropShadow_1129_6162"/>
<feBlend mode="normal" in="SourceGraphic" in2="effect1_dropShadow_1129_6162" result="shape"/>
</filter>
</defs>
</svg>
