<svg width="33" height="33" viewBox="0 0 33 33" fill="none" xmlns="http://www.w3.org/2000/svg">
<circle cx="16.5" cy="16.5" r="16.5" fill="#012E65" fill-opacity="0.5"/>
<path d="M21.5172 17.5555C21.5078 15.957 22.232 14.7523 23.6945 13.8641C22.8766 12.6922 21.6391 12.0477 20.0078 11.9234C18.4633 11.8016 16.7734 12.8234 16.1547 12.8234C15.5008 12.8234 14.0055 11.9656 12.8289 11.9656C10.4008 12.0031 7.82031 13.9016 7.82031 17.7641C7.82031 18.9055 8.02891 20.0844 8.44609 21.2984C9.00391 22.8969 11.0148 26.8133 13.1125 26.75C14.2094 26.7242 14.9852 25.9719 16.4125 25.9719C17.7977 25.9719 18.5148 26.75 19.7383 26.75C21.8547 26.7195 23.6734 23.1594 24.2031 21.5563C21.3648 20.218 21.5172 17.6375 21.5172 17.5555V17.5555ZM21.2687 23.8133C20.9336 24.2797 20.5961 24.6477 20.2867 24.8844C20.0406 25.0719 19.8508 25.1516 19.7242 25.1563C19.5133 25.1539 19.3094 25.1023 18.9109 24.95C18.8828 24.9383 18.8523 24.9266 18.8125 24.9125L18.7094 24.8727C18.3016 24.7156 18.0578 24.6313 17.7461 24.5492C17.3102 24.4367 16.8766 24.3758 16.4125 24.3758C15.9391 24.3758 15.4937 24.4344 15.0508 24.5445C14.725 24.6266 14.4508 24.718 14.05 24.868C14.0336 24.875 13.8602 24.9406 13.8109 24.9594C13.7289 24.9898 13.6656 25.0133 13.607 25.0344C13.3633 25.1188 13.2086 25.1539 13.0703 25.1563C13.0539 25.1563 13.0398 25.1539 13.0281 25.1516C13.0023 25.1469 12.9695 25.1375 12.932 25.1211C12.8266 25.0789 12.7 25.0016 12.557 24.8914C12.2289 24.6359 11.868 24.2352 11.5 23.7219C10.8555 22.8172 10.2461 21.6172 9.95312 20.7758C9.59219 19.7258 9.41406 18.7203 9.41406 17.7617C9.41406 16.3508 9.83125 15.2773 10.5484 14.5484C11.1648 13.925 11.9945 13.5758 12.8406 13.557C12.9789 13.5594 13.1805 13.5922 13.4359 13.6625C13.6375 13.7164 13.8578 13.7891 14.1555 13.8945C14.2445 13.9273 14.5516 14.0375 14.5891 14.0516C14.7695 14.1172 14.9055 14.1641 15.0391 14.2063C15.4656 14.3422 15.7961 14.4172 16.1547 14.4172C16.518 14.4172 16.8297 14.3398 17.2727 14.1875C17.4391 14.1313 18.0437 13.9063 18.1516 13.8688C18.7516 13.6555 19.1945 13.5406 19.5766 13.5125C19.6891 13.5031 19.7898 13.5031 19.8859 13.5102C20.418 13.5523 20.8727 13.6578 21.2594 13.8336C20.3781 14.8508 19.9234 16.0953 19.9258 17.5461C19.9187 17.8906 19.9469 18.2891 20.0453 18.7602C20.1953 19.475 20.4813 20.1828 20.9336 20.8461C21.2781 21.35 21.7047 21.8047 22.2156 22.2008C21.9461 22.7563 21.6156 23.3305 21.2687 23.8133ZM19.0539 10.407C20.2422 8.99609 20.1344 7.71172 20.0992 7.25C19.0492 7.31094 17.8352 7.96484 17.1437 8.76875C16.382 9.63125 15.9344 10.6977 16.0305 11.9C17.1648 11.9867 18.2008 11.4031 19.0539 10.407V10.407Z" fill="white"/>
</svg>
