<svg width="44" height="44" viewBox="0 0 44 44" fill="none" xmlns="http://www.w3.org/2000/svg">
<circle cx="22" cy="22" r="22" fill="#F7F6F6"/>
<g clip-path="url(#clip0_1129_6155)">
<g clip-path="url(#clip1_1129_6155)">
<g clip-path="url(#clip2_1129_6155)">
<g clip-path="url(#clip3_1129_6155)">
<path fill-rule="evenodd" clip-rule="evenodd" d="M21.0777 8.66675C24.339 8.66675 26.9923 11.3201 26.9923 14.5814V15.8241C26.9923 16.3761 26.5443 16.8241 25.9923 16.8241C25.4403 16.8241 24.9923 16.3761 24.9923 15.8241V14.5814C24.9923 12.4214 23.2363 10.6667 21.0777 10.6667H14.5777C12.4217 10.6667 10.667 12.4214 10.667 14.5814V29.4201C10.667 31.5787 12.4217 33.3334 14.5777 33.3334H21.0923C23.2417 33.3334 24.9923 31.5841 24.9923 29.4347V28.1774C24.9923 27.6254 25.4403 27.1774 25.9923 27.1774C26.5443 27.1774 26.9923 27.6254 26.9923 28.1774V29.4347C26.9923 32.6881 24.3443 35.3334 21.0923 35.3334H14.5777C11.319 35.3334 8.66699 32.6814 8.66699 29.4201V14.5814C8.66699 11.3201 11.319 8.66675 14.5777 8.66675H21.0777ZM31.8511 17.4054L35.7551 21.2921C35.79 21.3266 35.8211 21.3626 35.8497 21.4006L35.7551 21.2921C35.8024 21.3387 35.8444 21.3895 35.8808 21.4438C35.8969 21.4684 35.9123 21.4938 35.9267 21.52C35.9383 21.5404 35.949 21.5617 35.959 21.5834C35.9674 21.6025 35.9755 21.6217 35.9829 21.6411C35.993 21.6664 36.0018 21.6925 36.0095 21.7189C36.0153 21.7397 36.0207 21.7604 36.0254 21.7814C36.0313 21.8069 36.036 21.8325 36.0397 21.8583C36.0418 21.8751 36.0438 21.8927 36.0454 21.9104C36.0485 21.9408 36.0498 21.9704 36.0498 22.0001L36.043 22.0827L36.0403 22.1357C36.0399 22.138 36.0396 22.1402 36.0393 22.1425L36.0498 22.0001C36.0498 22.0741 36.0416 22.1474 36.0257 22.2186C36.0207 22.2397 36.0153 22.2605 36.0094 22.281C36.0018 22.3077 35.993 22.3337 35.9831 22.3594C35.9755 22.3785 35.9674 22.3977 35.9587 22.4165C35.949 22.4385 35.9383 22.4598 35.9268 22.4807C35.9123 22.5063 35.8969 22.5318 35.8803 22.5564C35.871 22.571 35.8607 22.5855 35.85 22.5996C35.8183 22.6414 35.7837 22.6807 35.7463 22.7171L31.8511 26.5961C31.6565 26.7907 31.4005 26.8881 31.1458 26.8881C30.8898 26.8881 30.6325 26.7907 30.4378 26.5934C30.0485 26.2014 30.0498 25.5694 30.4405 25.1801L32.627 23.0001H18.9947C18.4427 23.0001 17.9947 22.5521 17.9947 22.0001C17.9947 21.4481 18.4427 21.0001 18.9947 21.0001H32.6297L30.4405 18.8214C30.0498 18.4321 30.0471 17.8001 30.4378 17.4081C30.8271 17.0161 31.4591 17.0161 31.8511 17.4054Z" fill="#012E65"/>
</g>
</g>
</g>
</g>
<defs>
<clipPath id="clip0_1129_6155">
<rect width="32" height="32" fill="white" transform="translate(6 6)"/>
</clipPath>
<clipPath id="clip1_1129_6155">
<rect width="32" height="32" fill="white" transform="translate(6 6)"/>
</clipPath>
<clipPath id="clip2_1129_6155">
<rect width="32" height="32" fill="white" transform="translate(6 6)"/>
</clipPath>
<clipPath id="clip3_1129_6155">
<rect width="32" height="32" fill="white" transform="translate(6 6)"/>
</clipPath>
</defs>
</svg>
