<svg width="33" height="33" viewBox="0 0 33 33" fill="none" xmlns="http://www.w3.org/2000/svg">
<circle cx="16.5" cy="16.5" r="16.5" fill="#012E65" fill-opacity="0.5"/>
<path d="M9.8125 7.25003C9.757 7.24403 9.7075 7.27028 9.64825 7.27328C9.59875 7.27628 9.55825 7.26503 9.508 7.27328H9.41425C9.33175 7.29128 9.253 7.32353 9.1795 7.36703C9.0996 7.40812 9.02811 7.46384 8.96875 7.53128C8.67625 7.77728 8.5 8.15828 8.5 8.51603V25.601C8.5 25.9708 8.66425 26.4163 9.0625 26.633C9.0925 26.648 9.127 26.6443 9.15625 26.6563C9.3311 26.7247 9.5194 26.7519 9.70647 26.7356C9.89354 26.7194 10.0743 26.6601 10.2347 26.5625H10.2573L17.3125 22.25L20.8983 20.0938C20.8983 20.0938 23.9395 18.254 24.3438 18.008C24.6865 17.7995 25.006 17.4043 25 16.9295C24.994 16.4548 24.6663 16.1038 24.3438 15.9215C24.241 15.863 23.3388 15.3215 22.5153 14.8205C21.7278 14.3405 21.0363 13.9235 20.9688 13.883C20.9459 13.8663 20.9224 13.8505 20.8983 13.8358L17.3125 11.6563C17.3125 11.6563 10.7875 7.69853 10.3983 7.46078C10.2197 7.35071 10.0202 7.27894 9.8125 7.25003V7.25003ZM10 9.57053L17.0785 16.9528L10 24.3365V9.57053ZM13.6098 11.1643C14.9335 11.9668 16.5393 12.9455 16.5393 12.9455L19.3045 14.633L18.1098 15.875L13.6098 11.1643ZM20.617 15.4295C20.9043 15.6058 21.1683 15.761 21.742 16.109C22.369 16.49 22.8055 16.7338 23.1723 16.9535C22.4838 17.369 21.1773 18.1745 20.641 18.5L19.1635 16.9528L20.617 15.4295ZM18.1098 18.0545L19.3045 19.2973L16.5393 20.9848C16.5393 20.9848 14.8953 21.9718 13.5858 22.766L18.1098 18.0545Z" fill="white"/>
</svg>
