<svg width="44" height="44" viewBox="0 0 44 44" fill="none" xmlns="http://www.w3.org/2000/svg">
<circle cx="22" cy="22" r="22" fill="#F7F6F6"/>
<g clip-path="url(#clip0_1129_6158)">
<path d="M10.625 11.125C10.625 10.8489 10.8489 10.625 11.125 10.625H17.125C17.4011 10.625 17.625 10.4011 17.625 10.125V9.375C17.625 9.09886 17.4011 8.875 17.125 8.875H9.375C9.09886 8.875 8.875 9.09886 8.875 9.375V17.125C8.875 17.4011 9.09886 17.625 9.375 17.625H10.125C10.4011 17.625 10.625 17.4011 10.625 17.125V11.125Z" fill="#012E65"/>
<path d="M17.625 17.625V12.375H12.375V17.625H17.625ZM14.125 14.125H15.875V15.875H14.125V14.125Z" fill="#012E65"/>
<path d="M25.9375 10.125C25.9375 10.4011 26.1614 10.625 26.4375 10.625H32.875C33.1511 10.625 33.375 10.8489 33.375 11.125V17.125C33.375 17.4011 33.5989 17.625 33.875 17.625H34.625C34.9011 17.625 35.125 17.4011 35.125 17.125V9.375C35.125 9.09886 34.9011 8.875 34.625 8.875H26.4375C26.1614 8.875 25.9375 9.09886 25.9375 9.375V10.125Z" fill="#012E65"/>
<path d="M31.625 17.625V12.375H26.375V17.625H31.625ZM28.125 14.125H29.875V15.875H28.125V14.125Z" fill="#012E65"/>
<path d="M17.625 33.875C17.625 33.5989 17.4011 33.375 17.125 33.375H11.125C10.8489 33.375 10.625 33.1511 10.625 32.875V26.875C10.625 26.5989 10.4011 26.375 10.125 26.375H9.375C9.09886 26.375 8.875 26.5989 8.875 26.875V34.625C8.875 34.9011 9.09886 35.125 9.375 35.125H17.125C17.4011 35.125 17.625 34.9011 17.625 34.625V33.875Z" fill="#012E65"/>
<path d="M17.625 26.375H12.375V31.625H17.625V26.375ZM15.875 29.875H14.125V28.125H15.875V29.875Z" fill="#012E65"/>
<path d="M33.375 32.875C33.375 33.1511 33.1511 33.375 32.875 33.375H26.4375C26.1614 33.375 25.9375 33.5989 25.9375 33.875V34.625C25.9375 34.9011 26.1614 35.125 26.4375 35.125H34.625C34.9011 35.125 35.125 34.9011 35.125 34.625V26.875C35.125 26.5989 34.9011 26.375 34.625 26.375H33.875C33.5989 26.375 33.375 26.5989 33.375 26.875V32.875Z" fill="#012E65"/>
<path d="M22.875 24.625H29.875V28.125H31.625V22.875H22.875V24.625Z" fill="#012E65"/>
<path d="M31.625 31.625V29.875H21.125V22.875H12.375V24.625H19.375V31.625H31.625Z" fill="#012E65"/>
<path d="M19.375 12.375H21.125V17.625H19.375V12.375Z" fill="#012E65"/>
<path d="M12.375 21.125H24.625V12.375H22.875V19.375H12.375V21.125Z" fill="#012E65"/>
<path d="M26.375 19.375H31.625V21.125H26.375V19.375Z" fill="#012E65"/>
<path d="M26.375 26.375H28.125V28.125H26.375V26.375Z" fill="#012E65"/>
<path d="M22.875 26.375H24.625V28.125H22.875V26.375Z" fill="#012E65"/>
</g>
<defs>
<clipPath id="clip0_1129_6158">
<rect width="28" height="28" fill="white" transform="translate(8 8)"/>
</clipPath>
</defs>
</svg>
